# Blender 4.5.3 LTS
# www.blender.org
mtllib head.mtl
o Cube
v 3.000000 0.000000 -1.000000
v 3.000000 0.000000 1.000000
v 1.413901 0.000000 -1.000000
v 1.413901 2.000000 1.000000
v 1.413901 0.000000 1.000000
v 1.413901 2.000000 -1.000000
v 1.413901 2.000000 -1.000000
v 3.000000 0.000000 -1.000000
v 3.000000 0.000000 1.000000
v 1.413901 2.000000 1.000000
v -1.718293 0.000000 -1.000000
v -1.718293 2.000000 1.000000
v -1.718293 0.000000 1.000000
v -1.718293 2.000000 -1.000000
vn -0.0000 -1.0000 -0.0000
vn -0.0000 -0.0000 -1.0000
vn 0.7835 0.6214 -0.0000
vn -0.0000 1.0000 -0.0000
vn -0.0000 -0.0000 1.0000
vn -1.0000 -0.0000 -0.0000
vt 0.308913 0.500000
vt 0.375000 0.500000
vt 0.375000 0.750000
vt 0.308913 0.750000
vt 0.375000 0.303404
vt 0.625000 0.303404
vt 0.625000 0.433913
vt 0.375000 0.433913
vt 0.178404 0.500000
vt 0.178404 0.750000
vt 0.683599 0.492512
vt 0.683599 0.757488
vt 0.691087 0.500000
vt 0.691087 0.750000
vt 0.625000 0.816087
vt 0.375000 0.816087
vt 0.375000 0.946596
vt 0.821596 0.750000
vt 0.625000 0.946596
vt 0.821596 0.500000
s 0
usemtl Material
f 3/1/1 1/2/1 2/3/1 5/4/1
f 11/5/2 14/6/2 6/7/2 3/8/2
f 11/9/1 3/1/1 5/4/1 13/10/1
f 7/11/3 10/12/3 9/3/3 8/2/3
f 3/8/2 6/7/2 7/11/2 8/2/2 1/2/2
f 1/2/4 8/2/4 9/3/4 2/3/4
f 7/11/4 6/13/4 4/14/4 10/12/4
f 2/3/5 9/3/5 10/12/5 4/15/5 5/16/5
f 14/6/6 11/9/6 13/17/6 12/18/6
f 5/16/5 4/15/5 12/19/5 13/17/5
f 6/13/4 14/20/4 12/18/4 4/14/4
